<?xml version="1.0" encoding="UTF-8"?>
<svg version="1.1" xmlns="http://www.w3.org/2000/svg" width="340" height="316">
<path d="M0 0 C14.98597322 0.23192578 26.32743096 1.68888087 37.6875 12.25 C40.32581803 15.03014099 42.27083974 17.93066361 44.20703125 21.234375 C44.73401611 22.12866211 45.26100098 23.02294922 45.80395508 23.94433594 C46.1986499 24.62270508 46.59334473 25.30107422 47 26 C46.99476318 25.2479126 46.98952637 24.4958252 46.98413086 23.72094727 C46.96342773 20.33480658 46.95036123 16.94867916 46.9375 13.5625 C46.92912109 12.37849609 46.92074219 11.19449219 46.91210938 9.97460938 C46.90888672 8.84990234 46.90566406 7.72519531 46.90234375 6.56640625 C46.89710693 5.52427979 46.89187012 4.48215332 46.88647461 3.40844727 C47 1 47 1 48 0 C50.35228319 -0.11317284 52.67411948 -0.16416537 55.02734375 -0.16796875 C56.08351646 -0.17296135 56.08351646 -0.17296135 57.161026 -0.17805481 C58.65316106 -0.18312655 60.1453075 -0.18546306 61.63745117 -0.18530273 C63.92450607 -0.18748759 66.21107753 -0.20563549 68.49804688 -0.22460938 C69.94531084 -0.22754354 71.39257711 -0.22952818 72.83984375 -0.23046875 C73.52634506 -0.23765427 74.21284637 -0.24483978 74.92015076 -0.25224304 C79.77117631 -0.22882369 79.77117631 -0.22882369 82 2 C82.24888897 3.97683048 82.24888897 3.97683048 82.24723816 6.44776917 C82.25143265 7.38304443 82.25562714 8.3183197 82.25994873 9.28193665 C82.25432922 10.31110703 82.24870972 11.3402774 82.24291992 12.40063477 C82.24481827 13.48196686 82.24671661 14.56329895 82.24867249 15.67739868 C82.2523889 19.26547405 82.24166434 22.85334875 82.23046875 26.44140625 C82.22927741 28.92479936 82.22882369 31.40819292 82.2290802 33.8915863 C82.22731296 39.76941084 82.21591613 45.64716094 82.20057994 51.52496427 C82.1856984 57.55121448 82.18507216 63.57741832 82.18575573 69.60368443 C82.18548447 74.73272935 82.18001048 79.86175763 82.17275429 84.99079704 C82.16956107 87.46008109 82.1675987 89.92936703 82.16686058 92.39865303 C82.16470441 95.84205499 82.15597617 99.28537522 82.14526367 102.72875977 C82.14571686 103.75995438 82.14617004 104.79114899 82.14663696 105.85359192 C82.14237198 106.78604736 82.13810699 107.71850281 82.13371277 108.67921448 C82.13203692 109.49424722 82.13036108 110.30927996 82.12863445 111.14901066 C82 113 82 113 81 114 C79.33382885 114.04063832 77.66611905 114.042721 76 114 C75.84144531 113.22914063 75.68289062 112.45828125 75.51953125 111.6640625 C75.28621094 110.66117187 75.05289063 109.65828125 74.8125 108.625 C74.59207031 107.62726563 74.37164062 106.62953125 74.14453125 105.6015625 C73.26290618 102.8236843 73.26290618 102.8236843 70.76025391 101.95019531 C69.39392822 101.47984863 69.39392822 101.47984863 68 101 C67.14736572 100.70367676 66.29473145 100.40735352 65.41625977 100.10205078 C64.51705811 99.80282715 63.61785645 99.50360352 62.69140625 99.1953125 C61.69689453 98.85886719 60.70238281 98.52242188 59.67773438 98.17578125 C57.60677647 97.47723871 55.53385433 96.78449174 53.45898438 96.09765625 C48.12599796 94.28202463 43.38514121 92.59536449 39 89 C39 88.34 39 87.68 39 87 C38.40896484 86.77127197 37.81792969 86.54254395 37.20898438 86.30688477 C34.393173 84.64098752 33.35359493 82.87765747 31.65625 80.08984375 C31.05167969 79.10097168 30.44710937 78.11209961 29.82421875 77.09326172 C26.98749346 72.2831293 24.21912441 67.43999874 21.5 62.5625 C20.37171066 60.55173705 19.2428098 58.5413171 18.11328125 56.53125 C17.57912598 55.57992187 17.0449707 54.62859375 16.49462891 53.6484375 C13.72018525 48.73220674 10.87356113 43.85893064 8 39 C10.27296833 53.05651468 15.97218339 64.15441323 25.1875 75 C34.36693835 86.49657812 34.22722958 99.78444969 33 114 C31.21988063 115.78011937 28.61280486 115.13031781 26.20703125 115.1328125 C25.01916016 115.13410156 23.83128906 115.13539063 22.60742188 115.13671875 C20.72893555 115.13091797 20.72893555 115.13091797 18.8125 115.125 C17.57951172 115.12886719 16.34652344 115.13273437 15.07617188 115.13671875 C13.88185547 115.13542969 12.68753906 115.13414062 11.45703125 115.1328125 C10.36366455 115.13168457 9.27029785 115.13055664 8.14379883 115.12939453 C5.01630142 115.00067094 2.07923904 114.54029265 -1 114 C-1.02332994 99.28390435 -1.04097964 84.56781115 -1.05181217 69.85170078 C-1.05697493 63.01921026 -1.06401723 56.18673121 -1.07543945 49.35424805 C-1.08644707 42.76664695 -1.09227623 36.17905469 -1.09487724 29.59144402 C-1.096732 27.07191721 -1.10035357 24.55239109 -1.10573006 22.03286934 C-1.11293676 18.51742235 -1.1139911 15.00202539 -1.11352539 11.48657227 C-1.11712067 10.43353409 -1.12071594 9.38049591 -1.12442017 8.29554749 C-1.12235817 6.86728638 -1.12235817 6.86728638 -1.12025452 5.41017151 C-1.12117631 4.57779244 -1.1220981 3.74541338 -1.12304783 2.88781071 C-1 1 -1 1 0 0 Z M56 42 C57.31194147 46.98537758 59.65532824 50.91607303 62.3359375 55.25390625 C65.05686844 59.74408101 67.51978069 64.37377532 70 69 C71.51362868 64.45911397 69.58810808 61.63392802 67.7421875 57.36328125 C64.8341979 51.74942688 61.11639756 46.79679385 57 42 C56.67 42 56.34 42 56 42 Z " fill="#3851AB" transform="translate(90,91)"/>
<path d="M0 0 C11.97253805 8.03681422 20.87055544 20.12062449 24.015625 34.2734375 C27.00066513 52.68466403 25.54018575 72.1120331 14.91796875 87.7421875 C6.85831979 98.46632 -3.87056218 105.31885229 -16.984375 108.2734375 C-18.02368164 108.53930664 -18.02368164 108.53930664 -19.08398438 108.81054688 C-22.95341984 109.42809314 -26.74342346 109.30508698 -30.64453125 109.1875 C-31.47141953 109.16626068 -32.2983078 109.14502136 -33.1502533 109.12313843 C-34.89264261 109.07701905 -36.63495989 109.02810322 -38.37719727 108.9765625 C-41.04103139 108.89860851 -43.70498274 108.83147341 -46.36914062 108.765625 C-48.06512187 108.71939508 -49.76108625 108.67254126 -51.45703125 108.625 C-52.25190445 108.60515045 -53.04677765 108.5853009 -53.86573792 108.56484985 C-57.38357223 108.45533325 -60.59493085 108.21049092 -63.984375 107.2734375 C-64.07740235 96.13736708 -64.14830536 85.00139041 -64.19162369 73.86500931 C-64.21242323 68.69290609 -64.24060021 63.5210704 -64.28613281 58.34912109 C-64.32986432 53.3499873 -64.35356939 48.35110946 -64.36388397 43.35179901 C-64.37122662 41.4525729 -64.38556403 39.55335945 -64.40729523 37.65424347 C-64.55025006 24.63338996 -64.64782754 11.9222505 -54.97265625 1.95703125 C-39.63841418 -11.02736626 -16.58961743 -9.59765825 0 0 Z M-49.984375 5.2734375 C-50.314375 6.5934375 -50.644375 7.9134375 -50.984375 9.2734375 C-48.674375 8.2834375 -46.364375 7.2934375 -43.984375 6.2734375 C-43.984375 5.9434375 -43.984375 5.6134375 -43.984375 5.2734375 C-45.964375 5.2734375 -47.944375 5.2734375 -49.984375 5.2734375 Z M-47.984375 14.2734375 C-46.49244067 18.30166019 -44.28062879 19.52393303 -40.609375 21.5859375 C-35.53579541 24.70711866 -33.13111294 26.71143465 -30.984375 32.2734375 C-29.42948728 40.80987403 -29.94544779 49.52469243 -30.08032227 58.16650391 C-30.1105356 60.23861542 -30.1282842 62.31055109 -30.14453125 64.3828125 C-30.16136963 65.60967773 -30.17820801 66.83654297 -30.19555664 68.10058594 C-29.99498929 71.1139654 -29.5746877 72.75246832 -27.984375 75.2734375 C-27.324375 75.2734375 -26.664375 75.2734375 -25.984375 75.2734375 C-25.984375 75.9334375 -25.984375 76.5934375 -25.984375 77.2734375 C-23.68372044 79.25555314 -23.68372044 79.25555314 -20.796875 81.2734375 C-19.35248047 82.3253125 -19.35248047 82.3253125 -17.87890625 83.3984375 C-12.87878374 86.63738326 -8.99133861 87.92874262 -2.984375 87.2734375 C-0.38122506 85.9204247 -0.38122506 85.9204247 1.015625 83.2734375 C3.36951819 69.15007835 -7.94168752 51.78923768 -15.796875 40.5859375 C-18.95900082 36.41167996 -22.35316013 32.47160541 -25.859375 28.5859375 C-26.33608643 28.05589111 -26.81279785 27.52584473 -27.30395508 26.97973633 C-28.48724638 25.70256336 -29.73129656 24.48221519 -30.984375 23.2734375 C-31.644375 23.2734375 -32.304375 23.2734375 -32.984375 23.2734375 C-32.984375 22.6134375 -32.984375 21.9534375 -32.984375 21.2734375 C-34.73118793 20.28859642 -36.4819601 19.31077563 -38.234375 18.3359375 C-39.20890625 17.79066406 -40.1834375 17.24539062 -41.1875 16.68359375 C-43.52047909 15.50732915 -45.43788262 14.75242059 -47.984375 14.2734375 Z M0.015625 90.2734375 C-1.65363954 91.24816876 -3.31973142 92.22833539 -4.984375 93.2109375 C-5.9125 93.75621094 -6.840625 94.30148438 -7.796875 94.86328125 C-8.51875 95.32863281 -9.240625 95.79398437 -9.984375 96.2734375 C-9.984375 96.6034375 -9.984375 96.9334375 -9.984375 97.2734375 C-4.84711518 97.75833587 -4.84711518 97.75833587 -0.546875 95.2734375 C-0.03125 94.6134375 0.484375 93.9534375 1.015625 93.2734375 C0.685625 92.2834375 0.355625 91.2934375 0.015625 90.2734375 Z " fill="#354EAB" transform="translate(238.984375,97.7265625)"/>
<path d="M0 0 C11.2305526 0.17883046 20.86202684 3.14281687 29.02734375 10.94921875 C35.19123256 17.65565034 36.68751714 23.96576061 36.65625 32.83984375 C36.66708618 33.74319962 36.67792236 34.64655548 36.68908691 35.57728577 C36.72316844 38.4474307 36.73890185 41.31717991 36.75 44.1875 C36.76464378 47.96782393 36.79845427 51.74727623 36.84375 55.52734375 C36.84072876 56.38279282 36.83770752 57.23824188 36.83459473 58.11961365 C36.9161114 64.71178751 37.78813781 70.65136769 42.5 75.625 C48.55732231 79.20432682 54.20471212 79.46719024 61.25 80.25 C61.25 89.82 61.25 99.39 61.25 109.25 C54.125 110.5 54.125 110.5 51.91748047 110.86425781 C47.26967292 111.73910957 43.86700701 113.04187204 40.25 116.25 C35.94968513 123.68352967 36.9841549 132.18401336 37.1875 140.5 C37.82238126 169.05370481 37.82238126 169.05370481 30.25 178.25 C20.12051687 187.19393261 9.33808761 189.32504681 -3.75 190.25 C-5.58034055 188.41965945 -4.88042797 185.51788008 -4.8828125 183.0625 C-4.88410156 181.80695313 -4.88539063 180.55140625 -4.88671875 179.2578125 C-4.88462402 178.60071289 -4.8825293 177.94361328 -4.88037109 177.26660156 C-4.87502234 175.25838665 -4.88031691 173.25039541 -4.88671875 171.2421875 C-4.88542969 169.98664063 -4.88414062 168.73109375 -4.8828125 167.4375 C-4.88168457 166.27605469 -4.88055664 165.11460937 -4.87939453 163.91796875 C-4.75 161.25 -4.75 161.25 -3.75 160.25 C-2.19355647 159.9275729 -0.62940255 159.64200582 0.9375 159.375 C6.52643343 158.27475348 10.66463953 157.19891853 14.37817383 152.63378906 C16.52780557 148.74779768 16.83595625 145.68459715 16.82421875 141.359375 C16.84546562 140.24239227 16.84546562 140.24239227 16.86714172 139.10284424 C16.90880936 136.73508202 16.92421249 134.36807562 16.9375 132 C16.97623253 128.8905137 17.0240684 125.7811967 17.07421875 122.671875 C17.08617783 121.9275119 17.0981369 121.1831488 17.11045837 120.41622925 C17.40133865 104.45013392 17.40133865 104.45013392 21.3125 98.625 C21.86035156 97.78710938 22.40820312 96.94921875 22.97265625 96.0859375 C23.39417969 95.48007813 23.81570313 94.87421875 24.25 94.25 C23.63125 93.5075 23.0125 92.765 22.375 92 C16.87116465 84.87738954 17.12093511 77.04486708 17.109375 68.3671875 C17.09106481 66.68878832 17.07149619 65.01040247 17.05078125 63.33203125 C17.02174929 60.72063122 16.99999723 58.1101076 16.99951172 55.49853516 C16.99617179 52.95398627 16.96162775 50.41139488 16.921875 47.8671875 C16.9289447 47.09204803 16.9360144 46.31690857 16.94329834 45.51828003 C16.81503127 39.77891867 15.3403599 37.28153364 11.25 33.25 C8.20401723 31.21326501 5.15439649 30.75817514 1.5625 30.1875 C-3.64747634 29.35252366 -3.64747634 29.35252366 -4.75 28.25 C-4.84983058 26.26242972 -4.88080753 24.2713248 -4.8828125 22.28125 C-4.88410156 21.07082031 -4.88539063 19.86039063 -4.88671875 18.61328125 C-4.88285156 17.33839844 -4.87898437 16.06351563 -4.875 14.75 C-4.87886719 13.47511719 -4.88273438 12.20023438 -4.88671875 10.88671875 C-4.88542969 9.67628906 -4.88414062 8.46585938 -4.8828125 7.21875 C-4.88168457 6.09919922 -4.88055664 4.97964844 -4.87939453 3.82617188 C-4.67475991 -0.2479876 -4.26700604 0.28446707 0 0 Z " fill="#3650AA" transform="translate(256.75,53.75)"/>
<path d="M0 0 C0 9.24 0 18.48 0 28 C-3.52136542 29.40854617 -5.92771738 30.25865546 -9.5 30.875 C-13.55840918 31.73935337 -16.05148908 32.96214026 -19 36 C-20.65204583 38.79036215 -21.25129391 40.84470325 -21.27124023 44.07495117 C-21.28142685 44.86645065 -21.29161346 45.65795013 -21.30210876 46.47343445 C-21.30424881 47.32138077 -21.30638885 48.16932709 -21.30859375 49.04296875 C-21.33376737 50.8574249 -21.35916518 52.67187795 -21.38476562 54.48632812 C-21.41340698 57.33210344 -21.43743587 60.1778246 -21.45629883 63.02368164 C-21.47812237 65.78040218 -21.51758601 68.53647615 -21.55859375 71.29296875 C-21.55870956 72.13079391 -21.55882538 72.96861908 -21.5589447 73.83183289 C-21.69904063 82.31041299 -23.94389462 89.20041001 -29 96 C-28.34 96 -27.68 96 -27 96 C-22.42910227 103.3724157 -21.86738293 109.57191587 -21.82421875 118.125 C-21.80103189 119.90105367 -21.77691502 121.67709539 -21.75195312 123.453125 C-21.71680936 126.23120286 -21.68745743 129.00883585 -21.67407227 131.78710938 C-21.65856693 134.48360707 -21.61836281 137.17883866 -21.57421875 139.875 C-21.57612717 140.70016113 -21.57803558 141.52532227 -21.58000183 142.37548828 C-21.46744267 147.70629036 -20.5082469 150.75230803 -17 155 C-12.18010758 158.69592591 -6.90259175 159.48222879 -1 160 C0 161 0 161 0.11352539 163.68383789 C0.10567017 165.43555298 0.10567017 165.43555298 0.09765625 167.22265625 C0.09282227 169.11274414 0.09282227 169.11274414 0.08789062 171.04101562 C0.07953403 172.38151109 0.07106907 173.72200588 0.0625 175.0625 C0.0574866 176.40689942 0.05292342 177.7513006 0.04882812 179.09570312 C0.03699488 182.39717941 0.02050971 185.69856803 0 189 C-7.35518064 191.45172688 -17.32528751 188.16580349 -24.359375 185.37890625 C-32.28460464 181.24043574 -36.96460464 175.98211576 -40.15318298 167.75820923 C-41.48306943 163.42657088 -41.54623938 159.32986946 -41.50390625 154.828125 C-41.51332748 153.90207458 -41.52274872 152.97602417 -41.53245544 152.02191162 C-41.5608498 149.09770972 -41.56419204 146.17432783 -41.5625 143.25 C-41.56611705 140.3115113 -41.57570884 137.37360833 -41.60325623 134.4352417 C-41.61994772 132.6166726 -41.62299702 130.79791007 -41.61024475 128.97930908 C-41.65907922 123.10388292 -42.64887617 118.99233942 -46.375 114.25 C-50.34834125 111.19358365 -54.95814527 110.56147441 -59.8125 109.875 C-60.97394531 109.70742187 -62.13539062 109.53984375 -63.33203125 109.3671875 C-64.65267578 109.18542969 -64.65267578 109.18542969 -66 109 C-66.02465881 105.03069011 -66.04284023 101.06140966 -66.05493164 97.09204102 C-66.05997057 95.74079614 -66.06680177 94.38955674 -66.07543945 93.03833008 C-66.08752419 91.09979566 -66.09269828 89.161222 -66.09765625 87.22265625 C-66.10289307 86.05484619 -66.10812988 84.88703613 -66.11352539 83.68383789 C-66 81 -66 81 -65 80 C-63.29583928 79.68900643 -61.59079302 79.38207628 -59.8815918 79.10009766 C-50.88916679 77.61105042 -50.88916679 77.61105042 -44 72 C-41.44890674 67.29388378 -41.72070178 62.63318334 -41.7265625 57.421875 C-41.70626663 55.51952544 -41.68541572 53.61718174 -41.6640625 51.71484375 C-41.64152238 48.73513844 -41.62501116 45.7556654 -41.61914062 42.77587891 C-41.6095561 39.88662352 -41.5757033 36.99839701 -41.5390625 34.109375 C-41.54410797 33.23093933 -41.54915344 32.35250366 -41.55435181 31.44744873 C-41.42360186 23.12651018 -38.6340678 15.81287761 -32.95703125 9.6328125 C-23.16669224 1.46442586 -12.34432145 0 0 0 Z " fill="#3650AB" transform="translate(86,54)"/>
<path d="M0 0 C0.33 0 0.66 0 1 0 C2.00201211 14.13950419 -2.95434268 25.35651543 -11.80859375 36.21875 C-19.37731358 44.40114982 -29.1888574 49.56421397 -40 52 C-41.03930664 52.26586914 -41.03930664 52.26586914 -42.09960938 52.53710938 C-45.96904484 53.15465564 -49.75904846 53.03164948 -53.66015625 52.9140625 C-54.48704453 52.89282318 -55.3139328 52.87158386 -56.1658783 52.84970093 C-57.90826761 52.80358155 -59.65058489 52.75466572 -61.39282227 52.703125 C-64.05665639 52.62517101 -66.72060774 52.55803591 -69.38476562 52.4921875 C-71.08074687 52.44595758 -72.77671125 52.39910376 -74.47265625 52.3515625 C-75.26752945 52.33171295 -76.06240265 52.3118634 -76.88136292 52.29141235 C-80.45310287 52.18021756 -83.51302194 51.87174451 -87 51 C-87 47.7 -87 44.4 -87 41 C-85.71947754 41.00523682 -84.43895508 41.01047363 -83.11962891 41.01586914 C-78.32992259 41.03408625 -73.54021928 41.04549263 -68.75048828 41.05493164 C-66.68472782 41.05993387 -64.61897085 41.06673776 -62.55322266 41.07543945 C-59.56932712 41.08768625 -56.58547875 41.09326956 -53.6015625 41.09765625 C-52.69072906 41.10281754 -51.77989563 41.10797882 -50.84146118 41.11329651 C-45.5723847 41.11374868 -40.4328632 40.82426967 -35.1993103 40.20310974 C-33 40 -33 40 -29.0625 40.125 C-26.0832617 40.2621008 -26.0832617 40.2621008 -24.25 38.875 C-22.87196429 36.92941158 -22.87196429 36.92941158 -21.8125 34.25 C-20.07420114 31.13305031 -18.9464072 29.97897746 -16.25 27.8125 C-8.47375436 21.29417645 -4.55942093 12.91838906 -1.7265625 3.3359375 C-1 1 -1 1 0 0 Z " fill="#85D197" transform="translate(262,154)"/>
<path d="M0 0 C2.44420626 3.1069791 4.4202139 6.34121833 6.37109375 9.77734375 C7.02207031 10.92114502 7.67304687 12.06494629 8.34375 13.2434082 C8.68535156 13.84641754 9.02695313 14.44942688 9.37890625 15.07070923 C10.44792446 16.95588316 11.5221334 18.83801292 12.59765625 20.71948242 C15.92490097 26.54642494 19.22439214 32.38463359 22.44140625 38.2734375 C22.96226807 39.21582275 23.48312988 40.15820801 24.01977539 41.12915039 C24.97353187 42.85811913 25.91512907 44.59387943 26.84155273 46.33764648 C32.73993529 56.96787911 40.94499062 61.63811008 52.140625 65.3984375 C52.88707275 65.65230225 53.63352051 65.90616699 54.40258789 66.16772461 C55.89193512 66.6694782 57.38583768 67.15796643 58.88452148 67.63110352 C63.88367439 69.29672281 67.18156614 71.34579985 71 75 C72.4783226 77.95664519 72.06032783 80.74229737 72 84 C72.804375 83.979375 73.60875 83.95875 74.4375 83.9375 C77 84 77 84 78 85 C78.1328125 86.8125 78.1328125 86.8125 78.125 89 C78.12886719 90.0828125 78.12886719 90.0828125 78.1328125 91.1875 C78 93 78 93 77 94 C75.33382885 94.04063832 73.66611905 94.042721 72 94 C71.84144531 93.22914063 71.68289062 92.45828125 71.51953125 91.6640625 C71.28621094 90.66117187 71.05289063 89.65828125 70.8125 88.625 C70.59207031 87.62726563 70.37164062 86.62953125 70.14453125 85.6015625 C69.26290618 82.8236843 69.26290618 82.8236843 66.76025391 81.95019531 C65.39392822 81.47984863 65.39392822 81.47984863 64 81 C63.14736572 80.70367676 62.29473145 80.40735352 61.41625977 80.10205078 C60.51705811 79.80282715 59.61785645 79.50360352 58.69140625 79.1953125 C57.69689453 78.85886719 56.70238281 78.52242188 55.67773438 78.17578125 C53.60677647 77.47723871 51.53385433 76.78449174 49.45898438 76.09765625 C44.12599796 74.28202463 39.38514121 72.59536449 35 69 C35 68.34 35 67.68 35 67 C34.40896484 66.77127197 33.81792969 66.54254395 33.20898438 66.30688477 C30.393173 64.64098752 29.35359493 62.87765747 27.65625 60.08984375 C26.74939453 58.60653564 26.74939453 58.60653564 25.82421875 57.09326172 C22.98750006 52.28314048 20.21859731 47.44028541 17.5 42.5625 C13.45918491 35.34555667 9.38678533 28.16820068 5.07421875 21.109375 C4 19 4 19 4 16 C3.34 16 2.68 16 2 16 C0.61470179 10.54538831 -0.2396943 5.63281599 0 0 Z " fill="#85D099" transform="translate(94,111)"/>
<path d="M0 0 C2 2 2 2 2.1171875 4.94140625 C1.44427342 15.00255702 -0.18416063 22.38159254 -7 30 C-17.1869739 37.26185711 -26.62001503 39.74249631 -39 40 C-40 39 -40 39 -40.09765625 36.05859375 C-40.08605469 34.86363281 -40.07445312 33.66867188 -40.0625 32.4375 C-40.05347656 31.23996094 -40.04445312 30.04242188 -40.03515625 28.80859375 C-40.02355469 27.88175781 -40.01195312 26.95492187 -40 26 C-38.36804688 25.76216797 -38.36804688 25.76216797 -36.703125 25.51953125 C-19.44167848 22.87745744 -19.44167848 22.87745744 -5.40234375 13.11328125 C-2.73600572 9.0952064 -1.33963051 4.60133959 0 0 Z " fill="#87D199" transform="translate(292,204)"/>
<path d="M0 0 C1.06481197 1.59721796 2.11824715 3.20479036 3.078125 4.8671875 C8.00642184 13.31100276 14.61778631 17.69985763 23.85546875 20.578125 C27.92016343 21.37773707 32.07128847 21.4616153 36.19921875 21.71875 C39 22 39 22 40 23 C40.07258946 25.18639453 40.08373783 27.37500389 40.0625 29.5625 C40.05347656 30.76003906 40.04445312 31.95757812 40.03515625 33.19140625 C40.02355469 34.11824219 40.01195312 35.04507813 40 36 C32.64481936 38.45172688 22.67471249 35.16580349 15.640625 32.37890625 C8.09127946 28.43671841 2.26704863 22.78338019 -0.45703125 14.63671875 C-1.39050074 10.10368344 -1.50899597 5.59765209 -1 1 C-0.67 0.67 -0.34 0.34 0 0 Z " fill="#86D198" transform="translate(46,207)"/>
<path d="M0 0 C19.68481941 10.03424078 34.19135534 35.07633041 41 55.375 C42.29716925 60.23318802 42.28689854 65.00584028 42 70 C40 69 40 69 38.9921875 66.3671875 C38.62351563 65.21476562 38.25484375 64.06234375 37.875 62.875 C32.78058542 47.84851943 21.8152184 24.4076092 7 17 C7 16.34 7 15.68 7 15 C6.34 14.7525 5.68 14.505 5 14.25 C2.55807938 13.23253307 0.32663173 12.11763286 -2 10.875 C-5.14327576 9.26764308 -7.40847391 8.55105924 -11 9 C-11.75 7.25 -11.75 7.25 -12 5 C-8.32425053 0.56375064 -5.71793462 -0.47474915 0 0 Z " fill="#83CE99" transform="translate(199,104)"/>
<path d="M0 0 C11.22 0 22.44 0 34 0 C34 3.3 34 6.6 34 10 C32.21988063 11.78011937 29.61280486 11.13031781 27.20703125 11.1328125 C26.01916016 11.13410156 24.83128906 11.13539063 23.60742188 11.13671875 C21.72893555 11.13091797 21.72893555 11.13091797 19.8125 11.125 C18.57951172 11.12886719 17.34652344 11.13273438 16.07617188 11.13671875 C14.88185547 11.13542969 13.68753906 11.13414062 12.45703125 11.1328125 C11.36366455 11.13168457 10.27029785 11.13055664 9.14379883 11.12939453 C6.01839759 11.00075722 3.07059819 10.58149363 0 10 C0 6.7 0 3.4 0 0 Z " fill="#85D397" transform="translate(89,195)"/>
<path d="M0 0 C1.5675 0.020625 3.135 0.04125 4.75 0.0625 C4.75 4.3525 4.75 8.6425 4.75 13.0625 C3.23019531 13.31773437 3.23019531 13.31773437 1.6796875 13.578125 C0.32799199 13.82218113 -1.02356338 14.06701432 -2.375 14.3125 C-3.04015625 14.42207031 -3.7053125 14.53164062 -4.390625 14.64453125 C-10.54344376 15.79064455 -14.92314136 18.50791195 -19.25 23.0625 C-19.58 23.0625 -19.91 23.0625 -20.25 23.0625 C-20.86834421 12.44759103 -20.86834421 12.44759103 -18.6875 7.5625 C-13.32776994 2.06534097 -7.60117532 -0.10001546 0 0 Z " fill="#86D298" transform="translate(313.25,149.9375)"/>
<path d="M0 0 C13.82389417 -0.62835883 13.82389417 -0.62835883 20 4 C24.19695981 8.51980287 25.12728992 11.0347479 25.0625 17.125 C25.05347656 18.22070312 25.04445313 19.31640625 25.03515625 20.4453125 C25.02355469 21.28835937 25.01195313 22.13140625 25 23 C24.34 23 23.68 23 23 23 C21.81176643 21.52273664 20.62657744 20.04120618 19.51171875 18.5078125 C15.92524332 14.93060444 11.00723172 14.55657822 6.1875 13.875 C4.145625 13.58625 2.10375 13.2975 0 13 C0 8.71 0 4.42 0 0 Z " fill="#87D299" transform="translate(20,150)"/>
<path d="M0 0 C0.99 0.495 0.99 0.495 2 1 C2.421875 2.75 2.421875 2.75 2.75 5 C4.14939785 11.78334074 8.0284628 16.46962919 12.21875 21.84765625 C23.0982342 35.90032334 28.3356733 51.16282802 29 69 C25.35720929 65.08569693 24.1781942 61.56057685 23.1875 56.4375 C20.75528608 45.48500726 15.4073327 37.31066596 8 29 C8 28.34 8 27.68 8 27 C7.34 27 6.68 27 6 27 C5.67 25.35 5.34 23.7 5 22 C4.34 22 3.68 22 3 22 C-0.23683347 14.87896636 -0.13885541 7.66790413 0 0 Z " fill="#81CD9A" transform="translate(137,103)"/>
<path d="M0 0 C1.010625 -0.00773437 2.02125 -0.01546875 3.0625 -0.0234375 C6.41385037 0.43113396 8.31288278 1.34398322 11 3.375 C11.8125 6.0625 11.8125 6.0625 12 8.375 C10.68 8.375 9.36 8.375 8 8.375 C7.34 7.715 6.68 7.055 6 6.375 C2.87803664 5.91013282 2.87803664 5.91013282 -0.625 5.75 C-1.81351563 5.67523438 -3.00203125 5.60046875 -4.2265625 5.5234375 C-5.14179688 5.47445313 -6.05703125 5.42546875 -7 5.375 C-7 6.035 -7 6.695 -7 7.375 C-5.44539062 7.52195312 -5.44539062 7.52195312 -3.859375 7.671875 C-2.48948259 7.8220002 -1.11969596 7.97309287 0.25 8.125 C0.93191406 8.186875 1.61382812 8.24875 2.31640625 8.3125 C5.67395567 8.70367081 7.77198964 9.20247097 10.48828125 11.2578125 C12 13.375 12 13.375 11.9375 16.5 C11 19.375 11 19.375 8 21.375 C4.6015625 21.74609375 4.6015625 21.74609375 0.625 21.8125 C-0.68210938 21.85246094 -1.98921875 21.89242188 -3.3359375 21.93359375 C-7.78989466 21.25457896 -9.19651041 19.80088593 -12 16.375 C-11.67 15.385 -11.34 14.395 -11 13.375 C-9.02 13.87 -9.02 13.87 -7 14.375 C-7 15.035 -7 15.695 -7 16.375 C-2.38 16.375 2.24 16.375 7 16.375 C7 15.715 7 15.055 7 14.375 C5.96359375 14.27703125 4.9271875 14.1790625 3.859375 14.078125 C2.48948259 13.9279998 1.11969596 13.77690713 -0.25 13.625 C-0.93191406 13.563125 -1.61382812 13.50125 -2.31640625 13.4375 C-5.69599678 13.0437613 -7.76652251 12.55553141 -10.48046875 10.45703125 C-12 8.375 -12 8.375 -12.0625 5.8125 C-9.80826812 0.64102686 -5.20723642 -0.0398513 0 0 Z " fill="#32589F" transform="translate(255,258.625)"/>
<path d="M0 0 C2.495625 -0.061875 4.99125 -0.12375 7.5625 -0.1875 C8.33408447 -0.21481201 9.10566895 -0.24212402 9.90063477 -0.27026367 C15.00092766 -0.33071062 18.46635505 0.64065416 23 3 C25.50542059 5.9411459 25.2980611 9.3839456 25.1875 13.1015625 C24.94841563 15.52229177 24.49029786 17.06261279 23 19 C20.04953161 20.79164262 17.88276437 21.24165898 14.453125 21.1953125 C13.69161133 21.19031738 12.93009766 21.18532227 12.14550781 21.18017578 C10.71223145 21.15286377 10.71223145 21.15286377 9.25 21.125 C4.67125 21.063125 4.67125 21.063125 0 21 C0 14.07 0 7.14 0 0 Z M5 5 C5 8.63 5 12.26 5 16 C7.31243792 16.02685412 9.6249627 16.04632841 11.9375 16.0625 C13.86916016 16.07990234 13.86916016 16.07990234 15.83984375 16.09765625 C18.86298403 16.36532549 18.86298403 16.36532549 20 15 C20.07148199 13.64756083 20.08399454 12.29165633 20.0625 10.9375 C20.041875 9.638125 20.02125 8.33875 20 7 C16.65060119 4.97441119 14.13037449 4.78261013 10.25 4.875 C7.65125 4.936875 7.65125 4.936875 5 5 Z " fill="#334CAA" transform="translate(186,259)"/>
<path d="M0 0 C0 4.29 0 8.58 0 13 C-3.52136542 14.40854617 -5.92771738 15.25865546 -9.5 15.875 C-13.55840918 16.73935337 -16.05148908 17.96214026 -19 21 C-20.31165257 23.11660427 -20.31165257 23.11660427 -21 25 C-21.66 25 -22.32 25 -23 25 C-23.76718938 12.02171291 -23.76718938 12.02171291 -19 6 C-13.05159437 1.10908871 -7.60759333 0 0 0 Z " fill="#83CF98" transform="translate(86,69)"/>
<path d="M0 0 C9.25968608 0.1872363 14.99440938 1.89426961 21.5 8.5625 C23.72362939 13.65831736 23.31915684 18.52114091 23 24 C20 23 20 23 18.0625 20.5625 C14.73768121 16.43166453 11.43984999 15.7521257 6.3125 14.9375 C1.10252366 14.10252366 1.10252366 14.10252366 0 13 C-0.07258946 10.81360547 -0.08373783 8.62499611 -0.0625 6.4375 C-0.05347656 5.23996094 -0.04445312 4.04242188 -0.03515625 2.80859375 C-0.02355469 1.88175781 -0.01195312 0.95492187 0 0 Z " fill="#84D098" transform="translate(252,69)"/>
<path d="M0 0 C2.23828125 0.09375 2.23828125 0.09375 5 1 C6.62327861 3.17607078 7.9033318 5.14193676 9.1875 7.5 C11.37296737 11.93699206 11.37296737 11.93699206 15 15 C15.26039062 14.28457031 15.52078125 13.56914062 15.7890625 12.83203125 C17.06042529 9.8586828 18.56047309 7.36174818 20.375 4.6875 C20.96023437 3.80449219 21.54546875 2.92148437 22.1484375 2.01171875 C22.75945312 1.34785156 23.37046875 0.68398438 24 0 C25.32 0 26.64 0 28 0 C28.9584336 2.87530081 29.06656387 4.29049931 28.87890625 7.23046875 C28.83056641 8.03291016 28.78222656 8.83535156 28.73242188 9.66210938 C28.67634766 10.49548828 28.62027344 11.32886719 28.5625 12.1875 C28.51029297 13.03248047 28.45808594 13.87746094 28.40429688 14.74804688 C28.27476311 16.83236299 28.13806823 18.91623182 28 21 C26.68 20.67 25.36 20.34 24 20 C24 16.37 24 12.74 24 9 C23.32904297 10.17369141 23.32904297 10.17369141 22.64453125 11.37109375 C22.03996094 12.38300781 21.43539062 13.39492188 20.8125 14.4375 C20.22082031 15.44683594 19.62914063 16.45617187 19.01953125 17.49609375 C17 20 17 20 14.26171875 20.84765625 C13.14216797 20.92306641 13.14216797 20.92306641 12 21 C10.85252535 19.37615858 9.7070709 17.75088944 8.5625 16.125 C7.92441406 15.22007812 7.28632812 14.31515625 6.62890625 13.3828125 C5 11 5 11 4 9 C3.67 12.96 3.34 16.92 3 21 C1.68 20.67 0.36 20.34 -1 20 C-1.02689449 17.04160645 -1.04678741 14.08345573 -1.0625 11.125 C-1.07087891 10.28324219 -1.07925781 9.44148438 -1.08789062 8.57421875 C-1.09111328 7.76855469 -1.09433594 6.96289062 -1.09765625 6.1328125 C-1.10289307 5.38918457 -1.10812988 4.64555664 -1.11352539 3.87939453 C-1 2 -1 2 0 0 Z " fill="#3151A4" transform="translate(88,259)"/>
<path d="M0 0 C2.60776073 2.47402941 3.68745346 3.81228282 4.4375 7.3125 C4.13321747 11.03996101 3.47066913 14.14979246 1.4375 17.3125 C-3.59257094 20.66588063 -8.60465897 20.69209368 -14.375 19.5625 C-17.66275504 18.8409396 -19.43022902 17.95062505 -21.5625 15.3125 C-23.07458397 10.77624809 -23.25234709 6.94634838 -21.375 2.5 C-16.33273234 -3.58549545 -6.58620743 -3.11978247 0 0 Z M-18.5625 6.3125 C-19.123568 10.0529533 -18.71012184 11.09106724 -16.5625 14.3125 C-11.46253251 15.65744718 -6.23402687 16.02499947 -1.5625 13.3125 C-0.24281822 12.20721558 -0.24281822 12.20721558 -0.3125 9.4375 C-0.28909545 6.40031949 -0.28909545 6.40031949 -1.73828125 4.640625 C-4.22836094 2.82771901 -5.94447906 2.91262466 -9 2.9375 C-9.94746094 2.92976563 -10.89492187 2.92203125 -11.87109375 2.9140625 C-14.95512392 3.3706243 -16.34360737 4.15050205 -18.5625 6.3125 Z " fill="#3D5FA5" transform="translate(236.5625,260.6875)"/>
<path d="M0 0 C3.31408563 0 5.37012001 0.40804827 7.81640625 2.70703125 C8.99799634 4.08257565 10.15691329 5.47801592 11.2890625 6.89453125 C13.04648959 9.05720979 15.02950153 11.02950153 17 13 C17.33 9.04 17.66 5.08 18 1 C19.32 0.67 20.64 0.34 22 0 C23.64072259 3.28144519 23.14274434 6.89789996 23.125 10.5 C23.13080078 11.67755859 23.13080078 11.67755859 23.13671875 12.87890625 C23.12665394 18.74669213 23.12665394 18.74669213 22 21 C19.9375 21.4375 19.9375 21.4375 17 21 C12.37587359 17.36600544 8.67197943 12.56215626 5 8 C4.67 12.29 4.34 16.58 4 21 C2.68 21 1.36 21 0 21 C-1.57152719 17.85694562 -1.14318589 14.508726 -1.125 11.0625 C-1.12886719 10.33353516 -1.13273438 9.60457031 -1.13671875 8.85351562 C-1.1308304 5.64142264 -1.02261853 3.0678556 0 0 Z " fill="#3A5AA7" transform="translate(146,259)"/>
<path d="M0 0 C3.83074032 0.21709863 5.03891358 1.03660292 7.89453125 3.72265625 C8.87872753 4.82574872 9.85115664 5.93943533 10.8125 7.0625 C11.31458984 7.63033203 11.81667969 8.19816406 12.33398438 8.78320312 C13.56627224 10.17979604 14.78455648 11.5887232 16 13 C16.09087891 11.84371094 16.09087891 11.84371094 16.18359375 10.6640625 C16.26738281 9.66117187 16.35117187 8.65828125 16.4375 7.625 C16.51871094 6.62726563 16.59992187 5.62953125 16.68359375 4.6015625 C17 2 17 2 18 0 C19.32 0.33 20.64 0.66 22 1 C21.67 7.6 21.34 14.2 21 21 C19.35 21 17.7 21 16 21 C16 20.34 16 19.68 16 19 C15.34 19 14.68 19 14 19 C12.34375 17.3203125 12.34375 17.3203125 10.5 15.125 C8.71066742 13.00964496 6.95980876 10.95980876 5 9 C4.67 12.63 4.34 16.26 4 20 C2.35 20.33 0.7 20.66 -1 21 C-1.02895976 17.87501937 -1.04678483 14.7500731 -1.0625 11.625 C-1.07087891 10.73554688 -1.07925781 9.84609375 -1.08789062 8.9296875 C-1.09111328 8.07890625 -1.09433594 7.228125 -1.09765625 6.3515625 C-1.10289307 5.56604004 -1.10812988 4.78051758 -1.11352539 3.97119141 C-1 2 -1 2 0 0 Z " fill="#324DAF" transform="translate(36,259)"/>
<path d="M0 0 C1.8046875 0.01953125 1.8046875 0.01953125 4 1 C5.56056807 3.22307339 6.85065891 5.31082964 8.125 7.6875 C8.47175781 8.30044922 8.81851563 8.91339844 9.17578125 9.54492188 C11.23437806 13.26380462 12.78064637 16.90825149 14 21 C11.625 21.1875 11.625 21.1875 9 21 C8.34 20.01 7.68 19.02 7 18 C5.02013918 18.11347619 3.04108402 18.2410935 1.0625 18.375 C-0.59072266 18.47941406 -0.59072266 18.47941406 -2.27734375 18.5859375 C-3.17582031 18.72257812 -4.07429688 18.85921875 -5 19 C-5.33 19.66 -5.66 20.32 -6 21 C-7.65 21 -9.3 21 -11 21 C-10.45756025 16.00180515 -8.09783123 12.42422418 -5.5 8.25 C-5.08363281 7.56550781 -4.66726562 6.88101562 -4.23828125 6.17578125 C-1.18375319 1.18375319 -1.18375319 1.18375319 0 0 Z M1 6 C-0.485 9.465 -0.485 9.465 -2 13 C0.31 13 2.62 13 5 13 C4.01 10.69 3.02 8.38 2 6 C1.67 6 1.34 6 1 6 Z " fill="#3157A0" transform="translate(71,259)"/>
<path d="M0 0 C0.99 0 1.98 0 3 0 C4 5.75 4 5.75 4 8 C8.62 8 13.24 8 18 8 C18.33 5.69 18.66 3.38 19 1 C20.32 0.67 21.64 0.34 23 0 C23 6.93 23 13.86 23 21 C21.68 21 20.36 21 19 21 C19 18.36 19 15.72 19 13 C14.05 13.33 9.1 13.66 4 14 C4 15.98 4 17.96 4 20 C2.0625 20.5625 2.0625 20.5625 0 21 C-1.9395114 19.0604886 -1.13256629 16.1879288 -1.13671875 13.61132812 C-1.13091797 12.3496582 -1.13091797 12.3496582 -1.125 11.0625 C-1.12886719 10.22525391 -1.13273437 9.38800781 -1.13671875 8.52539062 C-1.13542969 7.72423828 -1.13414062 6.92308594 -1.1328125 6.09765625 C-1.13168457 5.36039307 -1.13055664 4.62312988 -1.12939453 3.86352539 C-1 2 -1 2 0 0 Z " fill="#3F61A5" transform="translate(272,259)"/>
<path d="M0 0 C2.19921875 -0.0234375 2.19921875 -0.0234375 5 1 C6.99718435 3.58787899 8.37547717 6.44835117 9.8125 9.375 C10.42254883 10.54675781 10.42254883 10.54675781 11.04492188 11.7421875 C14 17.54308036 14 17.54308036 14 21 C11.5625 20.625 11.5625 20.625 9 20 C8.67 19.34 8.34 18.68 8 18 C6.04233719 17.91917906 4.08373272 17.86089222 2.125 17.8125 C1.03445312 17.77769531 -0.05609375 17.74289062 -1.1796875 17.70703125 C-2.57574219 17.85205078 -2.57574219 17.85205078 -4 18 C-4.66 18.99 -5.32 19.98 -6 21 C-8.625 21.1875 -8.625 21.1875 -11 21 C-9.47705313 16.93373186 -7.56965188 13.18982444 -5.5 9.375 C-4.8915625 8.24835938 -4.283125 7.12171875 -3.65625 5.9609375 C-2 3 -2 3 0 0 Z M1 7 C0.01 8.98 -0.98 10.96 -2 13 C0.31 13 2.62 13 5 13 C4.49396008 10.83125748 4.00016187 9.00032373 3 7 C2.34 7 1.68 7 1 7 Z " fill="#3150A7" transform="translate(129,259)"/>
<path d="M0 0 C2.4499368 2.4499368 2.29666876 3.1904467 2.3125 6.5625 C2.14802408 14.15032225 0.25656927 20.38090871 -5 26 C-6.05767578 25.57074219 -6.05767578 25.57074219 -7.13671875 25.1328125 C-10.01205232 23.99523169 -12.90452186 22.92607644 -15.8125 21.875 C-16.78832031 21.52179688 -17.76414063 21.16859375 -18.76953125 20.8046875 C-19.50558594 20.53914063 -20.24164063 20.27359375 -21 20 C-21 19.34 -21 18.68 -21 18 C-20.18015625 17.73445313 -19.3603125 17.46890625 -18.515625 17.1953125 C-17.43796875 16.84210938 -16.3603125 16.48890625 -15.25 16.125 C-14.18265625 15.77695313 -13.1153125 15.42890625 -12.015625 15.0703125 C-7.34097614 13.5997211 -7.34097614 13.5997211 -3.9375 10.375 C-2.57860561 6.93246754 -1.27416042 3.47498297 0 0 Z " fill="#85CE9A" transform="translate(62,123)"/>
<path d="M0 0 C2 3 2 3 3.1875 5.8125 C6.6087146 11.82911878 10.83183066 14.88207143 17.4375 16.875 C18.95373458 17.26818155 20.47326453 17.64980313 22 18 C22 18.66 22 19.32 22 20 C21.25234375 20.26554687 20.5046875 20.53109375 19.734375 20.8046875 C18.74953125 21.15789062 17.7646875 21.51109375 16.75 21.875 C15.77546875 22.22304687 14.8009375 22.57109375 13.796875 22.9296875 C11.43705673 23.83274645 9.23094884 24.82078418 7 26 C2.18900025 20.42936871 -0.16318892 16.99273665 -0.6875 9.4375 C-0.77386719 8.30183594 -0.86023438 7.16617188 -0.94921875 5.99609375 C-1 3 -1 3 0 0 Z " fill="#84CD99" transform="translate(275,123)"/>
<path d="M0 0 C2.578125 -0.04125 5.15625 -0.0825 7.8125 -0.125 C8.62050049 -0.14320801 9.42850098 -0.16141602 10.26098633 -0.18017578 C14.06519761 -0.20976568 15.76428169 -0.15714554 19 2 C13.06 2 7.12 2 1 2 C1 7.28 1 12.56 1 18 C1.66 18 2.32 18 3 18 C3 13.05 3 8.1 3 3 C4.876875 2.95875 6.75375 2.9175 8.6875 2.875 C9.74324219 2.85179687 10.79898438 2.82859375 11.88671875 2.8046875 C15.02251859 3.00141271 17.17645373 3.66942346 20 5 C14.98269833 6.61270411 10.16045569 5.55290597 5 5 C5 8.63 5 12.26 5 16 C9.62 16 14.24 16 19 16 C18.34 16.66 17.68 17.32 17 18 C15.68 18 14.36 18 13 18 C13 18.66 13 19.32 13 20 C6.565 20.495 6.565 20.495 0 21 C0 14.07 0 7.14 0 0 Z " fill="#4F68B2" transform="translate(186,259)"/>
<path d="M0 0 C0.9796875 -0.00257813 1.959375 -0.00515625 2.96875 -0.0078125 C5.5 0.125 5.5 0.125 7.5 1.125 C7.17 1.785 6.84 2.445 6.5 3.125 C3.86 2.795 1.22 2.465 -1.5 2.125 C-1.83 3.115 -2.16 4.105 -2.5 5.125 C-3.49 5.785 -4.48 6.445 -5.5 7.125 C-5.82883826 10.24896351 -5.65383759 13.18795886 -4.5 16.125 C-3.51 16.455 -2.52 16.785 -1.5 17.125 C-1.5 17.785 -1.5 18.445 -1.5 19.125 C0.458964 18.81647815 2.41715713 18.5030582 4.375 18.1875 C5.46554688 18.01347656 6.55609375 17.83945312 7.6796875 17.66015625 C10.43821546 17.26948841 10.43821546 17.26948841 12.5 16.125 C12 18.0625 12 18.0625 10.5 20.125 C4.66153694 21.55900847 -0.84907841 21.30957718 -6.5 19.125 C-8.91965959 17.14477284 -9.48199473 16.1790158 -10.5 13.125 C-10.87032807 8.12557109 -10.5799137 5.15257945 -7.5 1.125 C-4.89080172 -0.17959914 -2.91057385 -0.0076594 0 0 Z " fill="#315B9E" transform="translate(224.5,259.875)"/>
<path d="M0 0 C3.32440733 1.62567171 4.57276531 4.5878237 6.2578125 7.73046875 C6.60457031 8.34341797 6.95132813 8.95636719 7.30859375 9.58789062 C9.36719056 13.30677337 10.91345887 16.95122024 12.1328125 21.04296875 C10.2578125 20.73046875 10.2578125 20.73046875 8.1328125 20.04296875 C7.4728125 19.05296875 6.8128125 18.06296875 6.1328125 17.04296875 C3.4771397 16.45948123 3.4771397 16.45948123 0.5078125 16.35546875 C-0.49507813 16.28972656 -1.49796875 16.22398437 -2.53125 16.15625 C-3.30210938 16.11886719 -4.07296875 16.08148438 -4.8671875 16.04296875 C-4.8671875 15.71296875 -4.8671875 15.38296875 -4.8671875 15.04296875 C-0.4121875 14.54796875 -0.4121875 14.54796875 4.1328125 14.04296875 C3.01426664 10.31682722 3.01426664 10.31682722 0.1328125 8.04296875 C-0.1971875 7.05296875 -0.5271875 6.06296875 -0.8671875 5.04296875 C-3.3421875 6.52796875 -3.3421875 6.52796875 -5.8671875 8.04296875 C-3.44344471 0.07924245 -3.44344471 0.07924245 0 0 Z " fill="#3751AD" transform="translate(72.8671875,258.95703125)"/>
<path d="M0 0 C1.98 0.495 1.98 0.495 4 1 C4 7.27 4 13.54 4 20 C2.35 20.33 0.7 20.66 -1 21 C-1.02888146 17.68751813 -1.04675799 14.37506833 -1.0625 11.0625 C-1.07087891 10.11697266 -1.07925781 9.17144531 -1.08789062 8.19726562 C-1.09111328 7.29814453 -1.09433594 6.39902344 -1.09765625 5.47265625 C-1.10289307 4.64000244 -1.10812988 3.80734863 -1.11352539 2.94946289 C-1 1 -1 1 0 0 Z " fill="#425FA3" transform="translate(302,259)"/>
<path d="M0 0 C0.99 0.33 1.98 0.66 3 1 C3.6875 3.25 3.6875 3.25 4 6 C2.6875 8.3125 2.6875 8.3125 1 10 C0.34 10 -0.32 10 -1 10 C-1.99 10.33 -2.98 10.66 -4 11 C-6.15625 11.23828125 -6.15625 11.23828125 -8.5 11.3125 C-9.66015625 11.36857422 -9.66015625 11.36857422 -10.84375 11.42578125 C-13 11 -13 11 -14.78125 8.98046875 C-15.1834375 8.32691406 -15.585625 7.67335938 -16 7 C-15.00419922 7.03480469 -15.00419922 7.03480469 -13.98828125 7.0703125 C-7.17405274 7.41145929 -7.17405274 7.41145929 -1 5 C-0.10613836 2.45224694 -0.10613836 2.45224694 0 0 Z " fill="#3B55AD" transform="translate(236,268)"/>
<path d="M0 0 C1.98 0.495 1.98 0.495 4 1 C4 1.66 4 2.32 4 3 C12.54824466 3.15873088 12.54824466 3.15873088 21 2 C20.6875 3.9375 20.6875 3.9375 20 6 C14.86633533 7.71122156 8.82695419 8.11041597 3.72265625 6.10546875 C1.8125 5 1.8125 5 -1 3 C-0.67 2.01 -0.34 1.02 0 0 Z " fill="#3650AB" transform="translate(244,272)"/>
<path d="M0 0 C1.32 0 2.64 0 4 0 C4.9584336 2.87530081 5.06656387 4.29049931 4.87890625 7.23046875 C4.83056641 8.03291016 4.78222656 8.83535156 4.73242188 9.66210938 C4.67634766 10.49548828 4.62027344 11.32886719 4.5625 12.1875 C4.51029297 13.03248047 4.45808594 13.87746094 4.40429688 14.74804688 C4.27476311 16.83236299 4.13806823 18.91623182 4 21 C2.68 20.67 1.36 20.34 0 20 C0.33 19.01 0.66 18.02 1 17 C1.0685495 15.10529184 1.08480372 13.2083166 1.0625 11.3125 C1.05347656 10.31863281 1.04445313 9.32476562 1.03515625 8.30078125 C1.02355469 7.54152344 1.01195313 6.78226562 1 6 C-0.65 6.33 -2.3 6.66 -4 7 C-2.92598892 4.08482708 -2.22189824 2.22189824 0 0 Z " fill="#3B59A9" transform="translate(112,259)"/>
<path d="M0 0 C0.66 0 1.32 0 2 0 C3.20853081 5.31753555 3.20853081 5.31753555 2.3125 8.25 C0.71532967 10.37956044 -0.54910311 10.98890934 -3 12 C-5.10644531 12.22705078 -5.10644531 12.22705078 -7.328125 12.1953125 C-8.12734375 12.18886719 -8.9265625 12.18242187 -9.75 12.17578125 C-10.575 12.15902344 -11.4 12.14226562 -12.25 12.125 C-13.09046875 12.11597656 -13.9309375 12.10695313 -14.796875 12.09765625 C-16.86470604 12.07415817 -18.93238995 12.03828908 -21 12 C-21 11.67 -21 11.34 -21 11 C-17.04 11 -13.08 11 -9 11 C-9 10.34 -9 9.68 -9 9 C-6.36 8.34 -3.72 7.68 -1 7 C-0.67 4.69 -0.34 2.38 0 0 Z " fill="#32609A" transform="translate(208,268)"/>
<path d="M0 0 C-0.33 5.61 -0.66 11.22 -1 17 C-2.32 17 -3.64 17 -5 17 C-5.08126087 14.91731407 -5.13930839 12.83371342 -5.1875 10.75 C-5.22230469 9.58984375 -5.25710937 8.4296875 -5.29296875 7.234375 C-4.96527061 3.61658755 -4.19697312 0 0 0 Z " fill="#3A5CA5" transform="translate(40,263)"/>
<path d="M0 0 C0.9796875 -0.00257813 1.959375 -0.00515625 2.96875 -0.0078125 C5.5 0.125 5.5 0.125 7.5 1.125 C7.17 1.785 6.84 2.445 6.5 3.125 C3.86 2.795 1.22 2.465 -1.5 2.125 C-1.83 3.115 -2.16 4.105 -2.5 5.125 C-3.49 5.785 -4.48 6.445 -5.5 7.125 C-6.22965366 9.68782742 -6.22965366 9.68782742 -6.5 12.125 C-6.83 12.125 -7.16 12.125 -7.5 12.125 C-7.5 10.145 -7.5 8.165 -7.5 6.125 C-8.16 6.125 -8.82 6.125 -9.5 6.125 C-7.42285079 0.33865578 -6.02560441 -0.01585685 0 0 Z " fill="#385AA5" transform="translate(224.5,259.875)"/>
<path d="M0 0 C0.66 0 1.32 0 2 0 C2 5.94 2 11.88 2 18 C1.34 18 0.68 18 0 18 C-1.125 11.25 -1.125 11.25 0 9 C-5.61 9 -11.22 9 -17 9 C-17 8.67 -17 8.34 -17 8 C-11.39 8 -5.78 8 0 8 C0 5.36 0 2.72 0 0 Z " fill="#344DAA" transform="translate(292,261)"/>
<path d="M0 0 C1.03769531 -0.01675781 2.07539063 -0.03351563 3.14453125 -0.05078125 C6.57895771 0.35923372 8.44890125 1.22641936 11.1875 3.3125 C12 6 12 6 12.1875 8.3125 C11.1975 8.6425 10.2075 8.9725 9.1875 9.3125 C8.919375 8.714375 8.65125 8.11625 8.375 7.5 C7.11856721 5.18551855 6.28470831 3.90348561 4.1875 2.3125 C1.21557238 1.94930691 1.21557238 1.94930691 -2 2.125 C-3.63001953 2.16560547 -3.63001953 2.16560547 -5.29296875 2.20703125 C-6.12441406 2.24183594 -6.95585937 2.27664063 -7.8125 2.3125 C-5.14098149 -0.35901851 -3.72067468 0.01376328 0 0 Z " fill="#3C57AE" transform="translate(254.8125,258.6875)"/>
<path d="M0 0 C1.876875 -0.04125 3.75375 -0.0825 5.6875 -0.125 C6.74324219 -0.14820313 7.79898438 -0.17140625 8.88671875 -0.1953125 C12.02251859 0.00141271 14.17645373 0.66942346 17 2 C11.98269833 3.61270411 7.16045569 2.55290597 2 2 C2 5.63 2 9.26 2 13 C2.99 13.33 3.98 13.66 5 14 C3.68 14 2.36 14 1 14 C0.67 9.38 0.34 4.76 0 0 Z " fill="#416EA1" transform="translate(189,262)"/>
<path d="M0 0 C1.32 0.33 2.64 0.66 4 1 C3.01 1.33 2.02 1.66 1 2 C1 6.95 1 11.9 1 17 C-2.23475448 15.38262276 -3.70572021 14.52370777 -6 12 C-5.67 11.34 -5.34 10.68 -5 10 C-4.01 10.99 -3.02 11.98 -2 13 C-1.93941406 12.22914063 -1.87882812 11.45828125 -1.81640625 10.6640625 C-1.73261719 9.66117187 -1.64882813 8.65828125 -1.5625 7.625 C-1.48128906 6.62726563 -1.40007813 5.62953125 -1.31640625 4.6015625 C-1 2 -1 2 0 0 Z " fill="#4767AC" transform="translate(54,259)"/>
<path d="M0 0 C1.875 0.25 1.875 0.25 4 1 C5.3125 2.8125 5.3125 2.8125 6 5 C5.625 7.25 5.625 7.25 5 9 C5 8.34 5 7.68 5 7 C4.34 7 3.68 7 3 7 C2.67 9.31 2.34 11.62 2 14 C1.34 13.67 0.68 13.34 0 13 C0.33 10.36 0.66 7.72 1 5 C0.34 4.67 -0.32 4.34 -1 4 C-0.67 2.68 -0.34 1.36 0 0 Z " fill="#3B57AA" transform="translate(205,261)"/>
<path d="M0 0 C0.99 0 1.98 0 3 0 C2.67 6.27 2.34 12.54 2 19 C0.35 19 -1.3 19 -3 19 C-1.68 18.67 -0.36 18.34 1 18 C0.83628906 17.48953125 0.67257813 16.9790625 0.50390625 16.453125 C-0.16698481 13.18708172 -0.0933456 10.0813253 -0.0625 6.75 C-0.05347656 5.48671875 -0.04445312 4.2234375 -0.03515625 2.921875 C-0.02355469 1.95765625 -0.01195312 0.9934375 0 0 Z " fill="#2B4DA1" transform="translate(55,261)"/>
<path d="M0 0 C2.0625 2.3125 2.0625 2.3125 4 5 C3.67 5.99 3.34 6.98 3 8 C0.03 8 -2.94 8 -6 8 C-6.33 7.01 -6.66 6.02 -7 5 C-6.34 4.34 -5.68 3.68 -5 3 C-5 3.99 -5 4.98 -5 6 C-3.02 5.67 -1.04 5.34 1 5 C0.67 3.35 0.34 1.7 0 0 Z " fill="#2B4E9E" transform="translate(74,266)"/>
<path d="M0 0 C0.99 0.495 0.99 0.495 2 1 C3.17063143 7.32140973 3.10607393 13.58842029 3 20 C-0.93521641 14.09717539 -0.12430212 6.86423947 0 0 Z " fill="#6BA89B" transform="translate(137,103)"/>
<path d="M0 0 C0.33 0 0.66 0 1 0 C1.33 3.96 1.66 7.92 2 12 C-1.2910841 8.39042389 -2.54663921 5.87362847 -3 1 C-2.01 1.495 -2.01 1.495 -1 2 C-0.67 1.34 -0.34 0.68 0 0 Z " fill="#6898A5" transform="translate(164,160)"/>
<path d="M0 0 C0 3.24111347 -0.74567471 5.04864638 -2 8 C-2.33 8.99 -2.66 9.98 -3 11 C-3.99 11 -4.98 11 -6 11 C-6.33 10.01 -6.66 9.02 -7 8 C-6.34 7.01 -5.68 6.02 -5 5 C-4.34 5.33 -3.68 5.66 -3 6 C-2.690625 5.195625 -2.38125 4.39125 -2.0625 3.5625 C-1 1 -1 1 0 0 Z " fill="#3A54AB" transform="translate(106,268)"/>
<path d="M0 0 C1.79158489 -0.02696365 3.58328473 -0.04637917 5.375 -0.0625 C6.37273437 -0.07410156 7.37046875 -0.08570313 8.3984375 -0.09765625 C11 0 11 0 13 1 C12.67 1.66 12.34 2.32 12 3 C9.36 2.67 6.72 2.34 4 2 C3.67 2.99 3.34 3.98 3 5 C0 1.125 0 1.125 0 0 Z " fill="#304BAE" transform="translate(219,260)"/>
<path d="M0 0 C0.33 0.66 0.66 1.32 1 2 C-0.98 4.97 -2.96 7.94 -5 11 C-6.32 10.67 -7.64 10.34 -9 10 C-8.01 9.67 -7.02 9.34 -6 9 C-5.87625 8.4225 -5.7525 7.845 -5.625 7.25 C-4.70302589 3.93089319 -2.48202881 2.29110352 0 0 Z " fill="#28539B" transform="translate(109,269)"/>
<path d="M0 0 C0.99 0.33 1.98 0.66 3 1 C3 3.64 3 6.28 3 9 C0 7 0 7 -0.75 3.9375 C-0.8325 2.968125 -0.915 1.99875 -1 1 C-0.67 0.67 -0.34 0.34 0 0 Z " fill="#7CC19A" transform="translate(161,154)"/>
<path d="M0 0 C0.99 0 1.98 0 3 0 C3.1875 3.375 3.1875 3.375 3 7 C2.01 7.66 1.02 8.32 0 9 C0 6.03 0 3.06 0 0 Z " fill="#3652A9" transform="translate(271,261)"/>
<path d="M0 0 C-1.6875 2.5 -1.6875 2.5 -4 5 C-6.75 5.3125 -6.75 5.3125 -9 5 C-7.35234966 0.05704899 -4.76872479 -0.25776891 0 0 Z " fill="#2D53A0" transform="translate(127,275)"/>
<path d="M0 0 C0.33 0 0.66 0 1 0 C1 2.97 1 5.94 1 9 C-0.32 9.33 -1.64 9.66 -3 10 C-2.69201674 8.51988629 -2.378482 7.04092675 -2.0625 5.5625 C-1.88847656 4.73878906 -1.71445312 3.91507813 -1.53515625 3.06640625 C-1 1 -1 1 0 0 Z " fill="#7ABE9C" transform="translate(262,154)"/>
<path d="M0 0 C2 2 2 2 2.125 5.625 C2.08375 6.73875 2.0425 7.8525 2 9 C0.68 8.67 -0.64 8.34 -2 8 C-1.34 5.36 -0.68 2.72 0 0 Z " fill="#76BC98" transform="translate(62,123)"/>
</svg>
